<svg width="29" height="23" fill="none" xmlns="http://www.w3.org/2000/svg"><g clip-path="url(#a)"><path d="M1.74 5.43c0-.85.52-1.31 1.55-1.38l3.97.03c.26 0 .44.12.53.37.4 1.26.86 2.35 1.37 3.26.5.91 1.17 1.96 1.99 3.16.07.15.18.22.34.22.13 0 .22-.06.3-.17l.08-.28.02-4.35c0-.3-.07-.5-.22-.6-.16-.1-.44-.18-.84-.23-.32-.05-.48-.24-.48-.55 0-.07 0-.12.02-.16.38-1.09 1.44-1.63 3.2-1.63l1.5-.03c.67 0 1.23.16 1.67.48.45.32.67.82.67 1.51v5.71c.12.08.24.13.34.13.27 0 .5-.16.7-.46 1.95-2.58 3-4.3 3.17-5.18a1.67 1.67 0 0 1 .67-.78c.28-.18.53-.3.74-.37a.56.56 0 0 1 .24-.05h4.13l.26.02c.36 0 .64.16.83.48.07.1.12.2.15.33a2.4 2.4 0 0 1 .06.55v.17a6.1 6.1 0 0 1-.94 2.2c-.5.78-1.15 1.63-1.93 2.53-.79.9-1.27 1.5-1.47 1.79-.16.2-.24.38-.24.55 0 .14.07.29.21.45l3.9 4.63c.2.27.31.56.31.88 0 .39-.16.7-.48.96-.32.25-.7.4-1.14.42l-.45.03h-4.05l-.11.01a.86.86 0 0 1-.1.01c-.4 0-.76-.15-1.1-.47l-2.5-2.97a1.39 1.39 0 0 0-.38-.33l-.28 1.16-.25 1.08-.08.43a1.4 1.4 0 0 1-1.12 1.05l-.37.03h-2.61c-1.48 0-2.95-.64-4.41-1.91a19.3 19.3 0 0 1-3.96-4.94 47.52 47.52 0 0 1-3.28-7.06 1.92 1.92 0 0 1-.13-.73Zm16.01 6.52c-.37 0-.7-.1-1-.3a.9.9 0 0 1-.46-.78V5.08c0-.33-.1-.57-.27-.72-.18-.14-.49-.2-.93-.2l-1.52.04c-.76 0-1.34.13-1.73.38.78.35 1.17.92 1.17 1.7v4.43a1.5 1.5 0 0 1-.53 1.05c-.32.27-.68.41-1.07.41-.53 0-.94-.24-1.22-.73a26.16 26.16 0 0 1-3.1-5.63l-.23-.65-3.55-.03c-.23 0-.36.01-.38.04-.03.02-.04.1-.04.21 0 .15.01.31.05.48l.56 1.4c1.5 3.65 3.11 6.51 4.86 8.61 1.75 2.1 3.47 3.14 5.16 3.14h2.66c.1 0 .19-.03.24-.08.05-.06.1-.18.13-.34l.06-.26.5-2.2c.15-.31.27-.51.38-.61.2-.19.42-.28.69-.28.43 0 .86.24 1.3.73l2.27 2.72c.14.21.3.32.45.32h4.4c.53 0 .8-.12.8-.37a.47.47 0 0 0-.08-.26l-3.86-4.55c-.3-.35-.46-.73-.46-1.13 0-.4.14-.79.43-1.16.23-.33.68-.89 1.34-1.67.67-.78 1.25-1.5 1.75-2.19.5-.68.83-1.3.98-1.84l.08-.33a.37.37 0 0 1-.02-.16c0-.08-.01-.14-.03-.2h-4.18c-.27.1-.48.26-.64.46l-.16.48c-.44 1.15-1.6 2.94-3.5 5.35-.36.34-.8.5-1.3.5Z" fill="#231F20"/></g><defs><clipPath id="a"><path fill="#fff" transform="translate(.74 .1)" d="M0 0h28v22H0z"/></clipPath></defs></svg>