<svg width="29" height="23" fill="none" xmlns="http://www.w3.org/2000/svg"><path d="m18.6 10.89-5.24-3.5a.65.65 0 0 0-1.02.55v6.98a.65.65 0 0 0 1.02.55l5.23-3.5a.65.65 0 0 0 0-1.08Zm-4.95 2.81V9.16l3.4 2.27-3.4 2.27Zm12.48-8.56a2.4 2.4 0 0 0-1.45-1.64c-3.72-1.43-9.69-1.4-9.94-1.4S8.52 2.06 4.8 3.5a2.4 2.4 0 0 0-1.45 1.64 25.32 25.32 0 0 0-.6 6.3c0 3.25.32 5.22.6 6.29a2.4 2.4 0 0 0 1.45 1.63c3.72 1.43 9.69 1.41 9.94 1.41h.08c.75 0 6.31-.04 9.86-1.4a2.4 2.4 0 0 0 1.45-1.64c.28-1.07.61-3.04.61-6.3s-.33-5.22-.61-6.3ZM24.86 17.4a1.1 1.1 0 0 1-.65.74c-3.5 1.34-9.4 1.32-9.47 1.32-.06 0-5.98.02-9.47-1.32a1.1 1.1 0 0 1-.65-.74c-.26-1-.57-2.85-.57-5.97 0-3.12.3-4.96.57-5.96a1.1 1.1 0 0 1 .65-.75c3.5-1.34 9.4-1.32 9.47-1.32.07 0 5.98-.02 9.47 1.32a1.1 1.1 0 0 1 .65.75c.27 1 .57 2.84.57 5.96s-.3 4.97-.57 5.97Z" fill="#231F20"/></svg>