<svg width="60" height="61" fill="none" xmlns="http://www.w3.org/2000/svg"><path opacity=".5" d="M0 44.73 27.4 61V37.15L0 20.78v23.95Zm51.3-32.04v2.56c0 1.84-3.5 3.38-7.7 3.38-4.3 0-7.7-1.54-7.7-3.38v-4.2c.3 1.74 3.6 3.18 7.7 3.18 4.3 0 7.7-1.54 7.7-3.38 0-1.84-3.5-3.38-7.7-3.38h-1l-5-2.97v3.18c0 1.84-3.5 3.37-7.7 3.37-2.7 0-5-.61-6.4-1.53-.2-.2-.4-.41-.7-.62-.4-.4-.6-.81-.6-1.22V4.6l-4.8 2.86h-1.1c-4.3 0-7.7 1.54-7.7 3.38 0 1.84 3.5 3.38 7.7 3.38 4.1 0 7.4-1.44 7.7-3.18v4.2c0 1.84-3.5 3.38-7.7 3.38-4.3 0-7.7-1.54-7.7-3.38v-2.46l-6 3.59 27.5 16.37 27.4-16.27-6.2-3.79ZM37.7 23.13c0 1.84-3.5 3.38-7.7 3.38-4.3 0-7.7-1.54-7.7-3.38v-4.2c.3 1.74 3.6 3.18 7.7 3.18s7.4-1.44 7.7-3.18v4.2Zm-5.1 14.23V61L60 44.73V21.08L32.6 37.36Zm-2.7-30.6c4.3 0 7.7-1.54 7.7-3.38C37.6 1.54 34.1 0 29.9 0c-4.3 0-7.7 1.54-7.7 3.38 0 1.84 3.4 3.38 7.7 3.38Z" fill="#149080"/></svg>