<svg width="152" height="152" fill="none" xmlns="http://www.w3.org/2000/svg"><path fill="#EEE" d="M0 0h152v152H0z"/><path d="M107.57 81.64c-.33-8.89-1.67-17.78-1.67-26.67 0-7.24 1.34-14.81-1.34-21.73 0-.65.34-1.64.34-2.3.67-3.62-11.03-1.65-12.7 1.65-1 .98-1.67 1.97-1.34 3.29 0 .33.33.66.33.99a333.42 333.42 0 0 1-8.68 31.27c-1.34 3.95-3.01 7.9-4.35 11.86-2-3.63-4.01-7.25-5.68-11.2-4.68-11.52-8.7-23.05-14.37-33.91.67-4.94-10.7-4.61-13.04 0-2.67 5.6-2.34 11.2-1.33 17.45 1 6.91 1.33 13.5 1.33 20.41 0 13.17 1.34 26.34 1.34 39.51-1.34 1.32-1.67 2.96-.33 4.61l2 1.98c3 2.3 11.7.33 11.7-4.28 0-13.83-1-27.33-1.34-41.16v-3.95c.34.33.34.99.67 1.32 2 5.26 4.35 10.53 7.35 15.47 3.01 4.94 4.35 10.2 6.02 15.47-.67.66-1 1.65-.67 2.31 0 .66.33.99 1 1.32 2 1.97 6.35.98 8.36 0 1-.33 2-1 2.67-1.32 1-.66 3.01-2.3 2.34-3.95 0-.33-.33-.66-.33-.99 1.67-4.28 2.34-8.56 3.34-13.17 1-4.6 2.67-9.22 4.34-13.83.34 1.98.34 4.28.67 6.26.67 8.56 0 16.8 0 25.35 0 2.96.34 5.27.67 8.23.34.99 1.34 5.93 1 6.26-2 1.97-1.33 4.28 1.34 4.6 3 .66 7.02-.32 9.36-2.3 4-3.62 2-9.55 1.34-14.16-2.01-7.9-.34-16.79-.34-24.69Z" fill="#000"/></svg>